PathFileType	4	(X/Y/Z)	Kaydara	
DataRate	CameraRate	NumFrames	NumMarkers	Units	OrigDataRate	OrigDataStartFrame	OrigNumFrames	
120.00	120.00	4	72	mm	120.00	164	261	
Frame#	Time	Hips			RightUpLeg			RightLeg			RightFoot			RightFoot_End			LeftUpLeg			LeftLeg			LeftFoot			LeftFoot_End			Spine			Spine1			Spine2			Spine3			Neck			Head			Head_End			RightShoulder			RightArm			RightForeArm			RightHand			RightHandThumb1			RightHandThumb2			RightHandThumb3			RightHandThumb3_End			RightInHandIndex			RightHandIndex1			RightHandIndex2			RightHandIndex3			RightHandIndex3_End			RightInHandMiddle			RightHandMiddle1			RightHandMiddle2			RightHandMiddle3			RightHandMiddle3_End			RightInHandRing			RightHandRing1			RightHandRing2			RightHandRing3			RightHandRing3_End			RightInHandPinky			RightHandPinky1			RightHandPinky2			RightHandPinky3			RightHandPinky3_End			LeftShoulder			LeftArm			LeftForeArm			LeftHand			LeftHandThumb1			LeftHandThumb2			LeftHandThumb3			LeftHandThumb3_End			LeftInHandIndex			LeftHandIndex1			LeftHandIndex2			LeftHandIndex3			LeftHandIndex3_End			LeftInHandMiddle			LeftHandMiddle1			LeftHandMiddle2			LeftHandMiddle3			LeftHandMiddle3_End			LeftInHandRing			LeftHandRing1			LeftHandRing2			LeftHandRing3			LeftHandRing3_End			LeftInHandPinky			LeftHandPinky1			LeftHandPinky2			LeftHandPinky3			LeftHandPinky3_End			
		X1	Y1	Z1	X2	Y2	Z2	X3	Y3	Z3	X4	Y4	Z4	X5	Y5	Z5	X6	Y6	Z6	X7	Y7	Z7	X8	Y8	Z8	X9	Y9	Z9	X10	Y10	Z10	X11	Y11	Z11	X12	Y12	Z12	X13	Y13	Z13	X14	Y14	Z14	X15	Y15	Z15	X16	Y16	Z16	X17	Y17	Z17	X18	Y18	Z18	X19	Y19	Z19	X20	Y20	Z20	X21	Y21	Z21	X22	Y22	Z22	X23	Y23	Z23	X24	Y24	Z24	X25	Y25	Z25	X26	Y26	Z26	X27	Y27	Z27	X28	Y28	Z28	X29	Y29	Z29	X30	Y30	Z30	X31	Y31	Z31	X32	Y32	Z32	X33	Y33	Z33	X34	Y34	Z34	X35	Y35	Z35	X36	Y36	Z36	X37	Y37	Z37	X38	Y38	Z38	X39	Y39	Z39	X40	Y40	Z40	X41	Y41	Z41	X42	Y42	Z42	X43	Y43	Z43	X44	Y44	Z44	X45	Y45	Z45	X46	Y46	Z46	X47	Y47	Z47	X48	Y48	Z48	X49	Y49	Z49	X50	Y50	Z50	X51	Y51	Z51	X52	Y52	Z52	X53	Y53	Z53	X54	Y54	Z54	X55	Y55	Z55	X56	Y56	Z56	X57	Y57	Z57	X58	Y58	Z58	X59	Y59	Z59	X60	Y60	Z60	X61	Y61	Z61	X62	Y62	Z62	X63	Y63	Z63	X64	Y64	Z64	X65	Y65	Z65	X66	Y66	Z66	X67	Y67	Z67	X68	Y68	Z68	X69	Y69	Z69	X70	Y70	Z70	X71	Y71	Z71	X72	Y72	Z72	

164	1.358	1081.203	893.81699	129.612	1135.7567226145718	881.1555663474094	86.66740470758096	1033.4661355963162	478.2195566153481	49.6009597112557	1077.058592801329	115.88719016414753	-18.04180853407474	984.7888761179724	31.952760086404204	121.63021073830771	1037.6717979363423	880.0245392021993	186.8016019760013	929.5990941760843	491.95722830290885	299.5450360151731	814.0342495088106	89.76069507661462	428.60675442222333	670.5805206248408	35.09240462570563	316.9192706942501	1032.4713290119241	1015.7619898474383	73.64640993910106	979.6053250993176	1080.7170107509455	24.59607187204041	920.4500892049592	1143.049772608689	-28.643833298181615	858.5172257195843	1194.163453416242	-83.12032974702191	790.8185760779046	1249.657750555705	-138.77185913132158	721.0916112840878	1294.7490024011893	-182.002543473003	581.8890345663	1371.5202512681708	-191.89919534678634	827.2102404542513	1236.3135703959167	-132.70451926274598	879.023405746526	1254.907590024972	-177.74186945407436	981.0822246900399	1097.2743037250766	-203.3127768087171	1089.9116835441464	1033.1159321180132	-262.3573674202222	1100.0791606757439	1054.1088885606111	-274.37452402325937	1102.909057441888	1059.9558735658727	-294.08935612371835	1105.6100635369396	1060.3253864118599	-307.4253339369502	1108.4864957824432	1057.4661836976811	-318.2063960689287	1104.8300934217064	1043.3694914161745	-273.3558739172568	1125.1397410861205	1042.6812367130972	-291.78464251607625	1132.861913194559	1038.9632351232042	-308.4063574349042	1131.9727616408277	1037.9431249671447	-319.71478437067407	1127.3987126078275	1037.9698480797965	-329.73224445335285	1105.8046638480173	1033.1697577390057	-271.8248629237437	1126.143054668636	1026.9823296261252	-288.9705167009656	1134.6241859795743	1021.5776051396565	-306.85106373618476	1133.5776926778003	1019.700189181588	-320.37091914505027	1128.5856051620058	1019.4150522414352	-331.27187181260615	1106.0488399672588	1025.9897518793143	-270.2354648253046	1124.7043251944492	1014.2368379683952	-284.11208707177167	1132.1195547407776	1008.1582867101239	-299.4075057263326	1131.1223536245102	1005.6210039120007	-312.29482794612534	1126.4343191974626	1005.0086954301735	-322.47165528961847	1105.1595933095678	1017.666996787707	-268.1648041237404	1121.9766612797603	1001.7848106125178	-279.4960489383978	1127.8685567926882	994.8346411249204	-291.2324187860795	1127.1189641252226	991.9764684374886	-300.38499184202806	1122.953337533963	990.8542501460049	-309.25757311292523	799.261544218234	1225.0443059351342	-107.9715626916962	759.3216715389854	1175.1370925540562	-71.14147133273885	906.2154636394442	1084.4255107775537	-126.01843971253517	1042.6199045482933	1033.3529801692318	-184.82366536749615	1052.609702466702	1055.513479467091	-192.1067323983944	1071.7136597753815	1061.7052584097182	-185.34524661288327	1086.4280607186759	1062.4052558253798	-180.0429992045044	1099.9013873124682	1059.8988834577353	-175.1149765989527	1058.3369797040482	1045.3433157546742	-192.00685132003412	1088.65076675889	1047.0462539456344	-194.8943737706523	1111.055880953021	1044.2544274132024	-189.64128988283403	1122.202878983512	1043.1459315721638	-182.64848444018025	1129.5525413806713	1042.6514859739525	-174.3465861415496	1061.1802055305777	1035.2710804942678	-189.94679279209237	1092.2848885847416	1031.4851362674333	-191.65097890626777	1117.0117882634333	1027.0991966014283	-185.6285627242124	1130.5938542639872	1025.1190588549757	-177.0527069434193	1138.7006676478677	1024.2655638633648	-167.90120318776266	1062.4173404755804	1028.1287013469012	-188.48811203546725	1091.3729822807993	1018.5856947512473	-188.9552495123542	1113.160617563342	1013.399560006625	-183.40595167502593	1126.3866963638993	1010.7655590963914	-174.97445893104828	1134.0684227392492	1009.6199697879546	-166.29420035563845	1062.949589454514	1019.7126086430799	-186.16836832897513	1089.8520110196887	1005.8292851654401	-185.40399577966406	1107.5399826375174	999.5909692096319	-180.48951599442822	1117.3038335276192	996.6609053775081	-174.1118055509405	1124.1757561347324	995.0655229346661	-166.29143819811253
165	1.367	1081.203	893.81699	129.612	1134.8918015191618	880.6936079166596	86.45201523721936	1033.0528135428058	477.6699246491661	49.58741523301239	1079.7254613880057	116.04122963980815	-19.5935068806011	987.9529095917842	31.74081971230126	120.04794889799882	1038.52625778541	880.4784764930661	187.01178756853878	930.4322178132143	492.3726583899768	299.57252047968933	815.0141740754759	89.81136798691215	427.43469895605864	671.5825332793133	34.82684914882935	315.90943700268394	1032.6188266737383	1015.7989382330366	73.60006994687386	979.8428896942758	1080.8549348406277	24.58236397866292	920.7606618743773	1143.3080109637121	-28.599166328447453	858.8409643544867	1194.535855034285	-82.97630402549059	791.1891204152485	1250.1550045192612	-138.55435902874828	721.8322070510553	1295.5578429586865	-182.08358124704418	582.6343947950205	1372.31552320242	-191.9833101700326	827.338085907402	1236.2167033200285	-132.7301151457235	878.1464629551351	1253.8639370352	-177.20979312142245	979.9132925332767	1097.4808788834052	-200.68959676344025	1085.4045196400753	1031.6329556320932	-258.49076026572203	1095.471412137904	1052.4993994292308	-270.3437641083508	1098.2614273334748	1058.2676528021593	-289.70620091148123	1100.914078206347	1058.5882947113607	-302.78010949575304	1103.732589665636	1055.6934599886742	-313.3284303287814	1100.1238641163807	1041.7646870139042	-269.2606314357866	1120.1198736831927	1040.9342863429997	-287.2334881014162	1127.7063384314285	1037.1444580909424	-303.4828519046583	1126.819240396037	1036.1007338739764	-314.57850970939614	1122.3051866869398	1036.122107150228	-324.43247816916045	1101.0572854309096	1031.5873890976727	-267.69753904743396	1121.0674866826855	1025.273459542538	-284.3811829694819	1129.396228374564	1019.7938103610886	-301.852602021502	1128.3501443136806	1017.8895644287722	-315.11440087123214	1123.4226950302123	1017.5993677235984	-325.8358065252658	1101.2793621650426	1024.4266089795067	-266.0974809371085	1119.6185061638935	1012.5762240519301	-279.55183497223095	1126.8970383408546	1006.4361033760481	-294.4884906920135	1125.8981755751943	1003.8749225976429	-307.12574609755694	1121.2699430890978	1003.2588043781946	-317.1332199522188	1100.381887779279	1016.132201041068	-264.0248898786899	1116.9001564942246	1000.177166804018	-274.9687224383582	1122.677925251321	993.1839425693682	-286.41627494143916	1121.9248718054018	990.3113651866626	-295.38570794050884	1117.810921540953	989.18751749155	-304.1078359733983	799.8268314289417	1226.0598428454311	-107.5323572092393	760.7041923282762	1177.458049989947	-70.56479516846726	905.8791332704703	1085.8366699369858	-123.58800767690143	1040.1111783921094	1034.1543868397266	-180.67728292117417	1049.8919803224342	1056.1874800452342	-187.91472187535211	1068.6799732446198	1062.257956208116	-181.23884360388794	1083.1626135256802	1062.8793981781794	-175.97746909731214	1096.4326876965692	1060.3125900140933	-171.06748964902005	1055.5609800991417	1046.0259825218088	-187.72245239373862	1085.4100881149122	1047.572988800687	-190.42056717612823	1107.4761481724581	1044.6770829686561	-185.14795574447197	1118.449369642053	1043.5136072742584	-178.2345958766994	1125.6801510288449	1042.9802097073543	-170.06023614521192	1058.3877388871751	1035.975474395663	-185.62334811883574	1089.0302914809631	1032.0491817025559	-187.1216410808422	1113.3865349527725	1027.5530476847644	-181.07351611811092	1126.7586084785466	1025.5081880696691	-172.59139462861236	1134.7351878654028	1024.6128614471654	-163.57841663032255	1059.6250849363205	1028.8523780725582	-184.14061639920558	1088.166721639258	1019.2002200071377	-184.39854787822009	1109.6313220078528	1013.9217246436662	-178.82268551115402	1122.654864210551	1011.2272382440261	-170.47939845504493	1130.2141431410942	1010.043243297553	-161.92834747152096	1060.171125974641	1020.4633252350554	-181.80887771215032	1086.7021360494402	1006.4963865720752	-180.84080755008372	1104.1332849461646	1000.190310730853	-175.89949499157962	1113.7503038289524	997.2191467186907	-169.5834324295837	1120.5142697712613	995.5914632949193	-161.87596908242685
166	1.375	1081.203	893.81699	129.612	1134.0291938334105	880.2215034353682	86.25095090385395	1032.5197245128388	477.1515279938713	49.570877232660756	1079.1319902035536	116.13284726348073	-20.920091848212234	987.8976642596917	31.44696661726844	118.71096355039006	1039.3729185215714	880.9412413858514	187.20943828484792	931.2246401687813	492.8136081197402	299.6100850018761	815.9259300533198	89.89309198826204	426.26561503159184	672.5170141043372	34.576804121462146	314.90806329177457	1032.7899607686136	1015.8419379907764	73.5449589339511	980.0341897955522	1080.9387078551163	24.5611012234965	920.9647749311265	1143.4426689454638	-28.569991626552476	859.0476084719991	1194.7420260984845	-82.8709095588213	791.3942137584123	1250.4254078161532	-138.37226150718396	721.9425116349682	1295.8529015129084	-181.67065261839363	582.7423905572591	1372.6293866237274	-191.3529357206799	827.273136899129	1236.3302732970947	-132.4057116376104	877.051559481539	1252.6291444510425	-176.7157176490558	977.5130782629288	1096.7391418109064	-197.77300045969602	1082.1211828317917	1033.2552062209704	-252.7367541020298	1092.0837502287548	1054.022786973316	-264.3870893513384	1094.8565947335032	1059.7410441889465	-283.38327352336046	1097.480071157048	1060.0338595269136	-296.1880906789811	1100.2595331677617	1057.121795948026	-306.5000842544466	1096.6479041340374	1043.2997659866783	-263.24308245951426	1116.359401874312	1042.3807211641472	-280.72636651356333	1123.8388101310143	1038.5521878921732	-296.5921623439937	1122.9711640558896	1037.4982028032107	-307.4752394281623	1118.5312277617809	1037.5203860008467	-317.17072297227645	1097.5487291299612	1033.1456624771556	-261.65682960868526	1117.2637665972754	1026.7578019920786	-277.8504413686164	1125.4724204671008	1021.2392997903036	-294.9017853618382	1124.4482390976932	1019.3242882888993	-307.9063867840811	1119.6011295859519	1019.0357795087972	-318.45402442762935	1097.7539401171666	1026.003318789885	-260.0531433119029	1115.8107265131234	1014.1020931073142	-273.06590641222635	1122.9817317040877	1007.931672505848	-287.6356401812083	1122.0024761471143	1005.3620098339526	-300.0243956601941	1117.449064621682	1004.7483686877616	-309.86827449179304	1096.853880248293	1017.7343546964402	-257.9886260716889	1113.107820922798	1001.7476517778495	-268.53306344825114	1118.796267704904	994.7359602600612	-279.6875001090052	1118.0559536474143	991.8599940473922	-288.47601098007385	1114.0073862665533	990.7399494372867	-297.0534205177394	800.3087032832692	1226.4585262252945	-107.53464242774521	762.0204823634956	1179.1828616257976	-70.41273952145109	905.438736080565	1086.6056925518428	-121.57375959759847	1036.9302238506589	1033.0098424492144	-177.59007603012125	1046.4969802708736	1054.916898587366	-184.77949565979395	1064.964328645925	1060.8690359186696	-178.1883479678076	1079.2124385185268	1061.4142675316637	-172.96709305489645	1092.2773982935303	1058.7892364057234	-168.07440395588043	1052.1090763371626	1044.765227279787	-184.49384888525648	1081.4895252651036	1046.1613771873626	-186.99794452947916	1103.2135040089604	1043.1650949914397	-181.7039187438833	1114.010815590311	1041.9483872306218	-174.8700534461848	1121.1207914622041	1041.377125233704	-166.82408651939087	1054.9208544571652	1034.737062842034	-182.35552943523717	1085.0981824629332	1030.675716204856	-183.6433359231602	1109.0806722209177	1026.0735005802455	-177.5674495964526	1122.240290755673	1023.9660825832183	-169.1791202466773	1130.0845795026128	1023.0301230162409	-160.30560232076652	1056.1595709037156	1027.6335737150043	-180.84873046895794	1084.2854507137654	1017.8772936966793	-180.89327876287933	1105.4245278507537	1012.5100588305395	-175.28906337435131	1118.2432712031855	1009.7572184091732	-167.03404261283805	1125.678226668456	1008.5359547501571	-158.61306966798898	1056.7208052291267	1019.2717676085855	-178.50523907680986	1082.8796868022707	1005.2259596484685	-177.32972594118658	1100.0523629533134	998.8551066266003	-172.3601717962943	1109.5210588181258	995.8444038166905	-166.10580714364235	1116.1755081167998	994.1854643509977	-158.51203532145576
167	1.383	1081.203	893.81699	129.612	1133.1374424968317	879.7188199487841	85.97362938838802	1032.1186780411583	476.5478593165797	49.51564175310038	1080.2864120667066	116.1885592642822	-22.413390240646436	989.5585830650086	31.138006818516367	117.1910585469589	1040.2573222642525	881.4400311387055	187.4863105221286	932.068724882751	493.2826825178464	299.71416102737146	816.924653311112	89.99096818774032	425.1516418893044	673.5459187931866	34.365014339982466	313.943383436911	1032.9319809302565	1015.86608319914	73.47745836690687	980.2244794643684	1081.0268530345513	24.526014013992143	921.1929663937141	1143.6120529233033	-28.54943525747701	859.281910491329	1195.0053853141605	-82.75899706710526	791.6514887818122	1250.7826162939207	-138.185645362997	722.3631098707096	1296.3933274584078	-181.54529147421619	583.1656224115181	1373.1420320744219	-191.2693107283263	827.2707149260833	1236.3029041903628	-132.27356329288583	876.0167244405378	1251.6914068396093	-176.00287397364585	976.2866049667479	1097.138174202698	-195.0119965221831	1076.6134898790199	1030.5147652533753	-249.21190980115747	1086.4610787955355	1051.216239839272	-260.6133570575432	1089.2435675477527	1056.9184883837222	-279.2248230251756	1091.8613582265048	1057.2087780608533	-291.7501744425895	1094.6254728151014	1054.3019894314384	-301.81931012942414	1090.9508912890606	1040.5148018157304	-259.4103642485584	1110.410793464243	1039.5737606152309	-276.3576371495168	1117.8183673673789	1035.7472688368007	-291.8224853299493	1116.9923672880761	1034.698760202242	-302.49195611062606	1112.6451175057305	1034.7283203117563	-312.03468841925456	1091.8316545858067	1030.3857392825314	-257.81004065635665	1111.2904111711543	1023.9899666825336	-273.4732360490014	1119.418977992408	1018.4770823128491	-290.0869179948647	1118.444225461095	1016.5703152986468	-302.8337347805326	1113.6981309984355	1016.2906599970626	-313.21420289662245	1092.0279351637873	1023.2615264830912	-256.21019017677276	1109.8438342792342	1011.3685768161172	-268.7512261063527	1116.9437114835116	1005.2065463759271	-282.94016806148386	1116.011431474558	1002.6466806622747	-295.0806272678141	1111.5526649719359	1002.042247529228	-304.7675042371197	1091.134156055414	1015.0150689100689	-254.1648223937485	1107.1669919991011	999.0494127242188	-264.28857488812486	1112.7974780201343	992.0498425530927	-275.14119883963605	1112.0909432575336	989.1836394951279	-283.7501094185873	1108.1259359452456	988.0732602714583	-292.1893068955349	800.8045767447376	1227.1486453781704	-107.32454334350376	763.3576539972581	1181.2132546672922	-70.05546964569885	904.7684277521756	1087.2196032296667	-119.40764025946143	1034.3375666795528	1033.5771583134824	-173.48428386378433	1043.707819338558	1055.3306463882445	-180.67658966394782	1061.8764520332716	1061.1446808803291	-174.21867712870736	1075.9011927228123	1061.5983866501701	-169.06921712286274	1088.7668078517981	1058.901029728559	-164.21841887506298	1049.24824852553	1045.1788145384066	-180.2951041312843	1078.1559675691321	1046.3690424778206	-182.66958411743943	1099.5436310682794	1043.2440104046934	-177.39673965753724	1110.17700108833	1041.9674417535025	-170.66432738715187	1117.181749153165	1041.3602371912582	-162.76189156507903	1052.034388950412	1035.1711452764835	-178.10949519894336	1081.7367728455818	1030.9200360177822	-179.2452684067018	1105.3504108689922	1026.1807083757772	-173.18680304606733	1118.3113518921753	1024.0026880323865	-164.9181560469775	1126.040061105415	1023.0282000188465	-156.2003601258491	1053.2669361007963	1028.087226041982	-176.57129287921313	1080.9614619273011	1018.1774104450606	-176.448551218232	1101.7779025960333	1012.6944428710974	-170.85397351170312	1114.404393146904	1009.8754988060143	-162.71144649274999	1121.7303850158116	1008.618958413216	-154.43549617398028	1053.8356967471996	1019.7552004412814	-174.20555997430031	1079.6030314223683	1005.5863220789566	-172.85851993620196	1096.5174423065184	999.1293427756829	-167.88875547387428	1105.84595502474	996.0735945606541	-161.71261605865857	1112.4039031257128	994.3852197084988	-154.2451008659218
